# xmcd
#
# Track frame offsets: 
#        150
#        10385
#        36555
#        48712
#        66582
#        90290
#        108193
#        127703
#
# Disc length: 1929 seconds
#
# Revision: 0
# Processed by: cddbd v1.5.2PL0 Copyright (c) Steve Scherf et al.
# Submitted via: ExactAudioCopy v0.99pb5
#
DISCID=66078708
DTITLE=Pap's Blue Ribbon - A Collection Of Beautiful Lies
DYEAR=2009
DGENRE=Country
TTITLE0=Space Trucker Love
TTITLE1=A Collection Of Beautiful Lies
TTITLE2=Just A Fool
TTITLE3=Boy Meets Girl
TTITLE4=I Don't Know What We Are Talking About
TTITLE5=The Annual Jellyfish Jubilee
TTITLE6=My Personal Apocalypse
TTITLE7=Male Trucker Love
EXTD=
EXTT0=
EXTT1=
EXTT2=
EXTT3=
EXTT4=
EXTT5=
EXTT6=
EXTT7=
PLAYORDER=
